<?xml version="1.0" encoding="utf-8"?>
<!-- Generator: Adobe Illustrator 22.0.1, SVG Export Plug-In . SVG Version: 6.00 Build 0)  -->
<svg version="1.1" id="Layer_1" xmlns="http://www.w3.org/2000/svg" xmlns:xlink="http://www.w3.org/1999/xlink" x="0px" y="0px"
	 viewBox="0 0 512 512" style="enable-background:new 0 0 512 512;" xml:space="preserve">
<style type="text/css">
	.st0{fill:#93D0A6;}
</style>
<g>
	<path class="st0" d="M241,236.2v68c0,8.3,6.7,15,15,15c8.3,0,15-6.7,15-15v-68c-5,0.3-10,0.5-15,0.5S246,236.5,241,236.2L241,236.2
		z"/>
	<path class="st0" d="M256,206.7c105.7,0,191.7-86,191.7-191.7c0-8.3-6.7-15-15-15C353.3,0,285.1,48.5,256,117.4
		C226.9,48.5,158.6,0,79.3,0c-8.3,0-15,6.7-15,15C64.3,120.7,150.3,206.7,256,206.7z"/>
	<path class="st0" d="M167,306.5c-13.5-13.5-35.9-13.8-49.1,0c-12.8,13.3-12.7,34.6,0.5,47.7l35.8,35.8c5.9,5.9,5.9,15.4,0,21.2
		s-15.4,5.9-21.2,0l-64.3-64.3c-2.8-2.8-4.4-6.6-4.4-10.6V210.1c0-26.6-21.3-49.4-49.3-49.4l0,0c-8.3,0-15,6.7-15,15v192.8
		c0,4,1.6,7.8,4.4,10.6l92,92V497c0,8.3,6.7,15,15,15h112.5c8.3,0,15-6.7,15-15v-85.8c0-21-8.4-41.2-23.2-56.1L167,306.5z"/>
	<path class="st0" d="M497,160.7L497,160.7c-28,0-49.3,22.8-49.3,49.4v126.2c0,4-1.6,7.8-4.4,10.6L379,411.2
		c-5.9,5.9-15.4,5.9-21.2,0c-5.9-5.9-5.9-15.4,0-21.2l35.8-35.8c13.2-13.2,13.3-34.4,0.5-47.7c-13.3-13.8-35.6-13.5-49.1,0
		l-48.6,48.6c-14.9,14.9-23.2,35-23.2,56.1V497c0,8.3,6.7,15,15,15h112.5c8.3,0,15-6.7,15-15v-25.9l92-92c2.8-2.8,4.4-6.6,4.4-10.6
		V175.7C512,167.4,505.3,160.7,497,160.7z"/>
</g>
</svg>
