<?xml version="1.0" encoding="utf-8"?>
<!-- Generator: Adobe Illustrator 22.0.1, SVG Export Plug-In . SVG Version: 6.00 Build 0)  -->
<svg version="1.1" id="Layer_1" xmlns="http://www.w3.org/2000/svg" xmlns:xlink="http://www.w3.org/1999/xlink" x="0px" y="0px"
	 viewBox="0 0 512 512" style="enable-background:new 0 0 512 512;" xml:space="preserve">
<style type="text/css">
	.st0{fill:#617385;}
</style>
<path class="st0" d="M151.4,129.3c-8.9,0-16-7.2-16-16V16c0-8.9,7.2-16,16-16c8.9,0,16,7.2,16,16v97.2
	C167.5,122.1,160.3,129.3,151.4,129.3z"/>
<path class="st0" d="M360.6,129.3c-8.9,0-16-7.2-16-16V16c0-8.9,7.2-16,16-16c8.9,0,16,7.2,16,16v97.2
	C376.6,122.1,369.4,129.3,360.6,129.3z"/>
<path class="st0" d="M24.3,222.4v221.2c0,37.7,30.7,68.4,68.4,68.4h326.6c37.7,0,68.4-30.7,68.4-68.4V222.4H24.3z"/>
<path class="st0" d="M487.7,190.3V117c0-37.7-30.7-68.4-68.4-68.4h-10.6v64.7c0,26.5-21.6,48.1-48.1,48.1s-48.1-21.6-48.1-48.1V48.6
	h-113v64.7c0,26.5-21.6,48.1-48.1,48.1s-48.1-21.6-48.1-48.1V48.6H92.7C55,48.6,24.3,79.3,24.3,117v73.3L487.7,190.3L487.7,190.3z"
	/>
</svg>
