<?xml version="1.0" encoding="utf-8"?>
<!-- Generator: Adobe Illustrator 22.0.1, SVG Export Plug-In . SVG Version: 6.00 Build 0)  -->
<svg version="1.1" id="Capa_1" xmlns="http://www.w3.org/2000/svg" xmlns:xlink="http://www.w3.org/1999/xlink" x="0px" y="0px"
	 viewBox="0 0 512 512" style="enable-background:new 0 0 512 512;" xml:space="preserve">
<style type="text/css">
	.st0{fill:#617385;}
</style>
<g>
	<path class="st0" d="M432,145c-1.9,0-3.8,0.1-5.7,0.2c-5.7-18.2-16.4-34.6-31-47.2c-19.6-17-45.1-25.9-71.1-24.9
		C298.7,28.4,251,0,200,0C135.9,0,79.2,44.1,62.1,105.9C25.3,122.3,1,159.1,1,200c0,39.9,22.8,74.5,56,91.6V254
		c0-24.8,20.2-45,45-45h308c24.8,0,45,20.2,45,45v45.6c32.4-9.9,56-40,56-75.6C511,180.4,475.6,145,432,145L432,145z"/>
	<path class="st0" d="M410,239H102c-8.3,0-15,6.7-15,15v105.9h338V254C425,245.7,418.3,239,410,239z M215.6,316H136
		c-8.3,0-15-6.7-15-15s6.7-15,15-15h79.6c8.3,0,15,6.7,15,15S223.9,316,215.6,316L215.6,316z M312,315.9c-8.3,0-15-6.7-15-15
		s6.7-15,15-15c8.3,0,15,6.7,15,15S320.3,315.9,312,315.9z M376,315.9c-8.3,0-15-6.7-15-15s6.7-15,15-15c8.3,0,15,6.7,15,15
		S384.3,315.9,376,315.9z"/>
	<path class="st0" d="M87,497c0,8.3,6.7,15,15,15h308c8.3,0,15-6.7,15-15V389.9H87V497z M376,432c8.3,0,15,6.7,15,15s-6.7,15-15,15
		c-8.3,0-15-6.7-15-15S367.7,432,376,432z M312,432c8.3,0,15,6.7,15,15s-6.7,15-15,15c-8.3,0-15-6.7-15-15S303.7,432,312,432z
		 M136,432h79.6c8.3,0,15,6.7,15,15s-6.7,15-15,15H136c-8.3,0-15-6.7-15-15S127.7,432,136,432z"/>
</g>
</svg>
