<?xml version="1.0" encoding="utf-8"?>
<!-- Generator: Adobe Illustrator 22.0.1, SVG Export Plug-In . SVG Version: 6.00 Build 0)  -->
<svg version="1.1" id="Capa_1" xmlns="http://www.w3.org/2000/svg" xmlns:xlink="http://www.w3.org/1999/xlink" x="0px" y="0px"
	 viewBox="0 0 512 512" style="enable-background:new 0 0 512 512;" xml:space="preserve">
<style type="text/css">
	.st0{fill:#1C4B6E;}
</style>
<path class="st0" d="M386,302c-33.1,0-60-26.9-60-60s26.9-60,60-60s60,26.9,60,60S419.1,302,386,302z"/>
<path class="st0" d="M497,512H15c-8.3,0-15-6.7-15-15v-30c0-8.3,6.7-15,15-15h482c8.3,0,15,6.7,15,15v30
	C512,505.3,505.3,512,497,512z"/>
<path class="st0" d="M437.7,315.6C423.1,325.9,405.2,332,386,332s-37.1-6.1-51.7-16.4c-13.1,7.5-24.5,17.7-33.3,29.8V377
	c0,15.6-7.9,29.3-20,37.4v7.6h210v-15C491,367.9,469.5,333.7,437.7,315.6z"/>
<path class="st0" d="M256,212H16c-8.3,0-15,6.7-15,15v150c0,8.3,6.7,15,15,15h69.2l-10,30h121.6l-10-30H256c8.3,0,15-6.7,15-15V227
	C271,218.7,264.3,212,256,212z"/>
<path class="st0" d="M336,0H116C96.7,0,81,15.7,81,35v80c0,19.3,15.7,35,35,35h125.5l56.2,37.5c2.5,1.7,5.4,2.5,8.3,2.5
	c2.4,0,4.9-0.6,7.1-1.8c4.9-2.6,7.9-7.7,7.9-13.2v-25h15c19.3,0,35-15.7,35-35V35C371,15.7,355.3,0,336,0z M296,90H156
	c-8.3,0-15-6.7-15-15s6.7-15,15-15h140c8.3,0,15,6.7,15,15S304.3,90,296,90z"/>
</svg>
