<?xml version="1.0" encoding="utf-8"?>
<!-- Generator: Adobe Illustrator 22.0.1, SVG Export Plug-In . SVG Version: 6.00 Build 0)  -->
<svg version="1.1" id="Layer_1" xmlns="http://www.w3.org/2000/svg" xmlns:xlink="http://www.w3.org/1999/xlink" x="0px" y="0px"
	 viewBox="0 0 512 512" style="enable-background:new 0 0 512 512;" xml:space="preserve">
<style type="text/css">
	.st0{fill:#1C4B6E;}
</style>
<path class="st0" d="M120,233C53.7,233,0,286.7,0,353s53.7,120,120,120s120-53.7,120-120S186.3,233,120,233z M120,398
	c-24.8,0-45-20.2-45-45s20.2-45,45-45s45,20.2,45,45S144.8,398,120,398z"/>
<path class="st0" d="M120,338c-8.3,0-15,6.7-15,15s6.7,15,15,15s15-6.7,15-15S128.3,338,120,338z"/>
<path class="st0" d="M392,128c0-8.3,6.7-15,15-15V83c-24.8,0-45,20.2-45,45v45h30V128z"/>
<path class="st0" d="M318.1,323c20.8-35.8,59.6-60,103.9-60c21.8,0,42.3,5.9,60,16.1V263c0-33.1-26.9-60-60-60H219.4
	c-28.5-18.9-62.7-30-99.4-30c-41.7,0-82.4,14.6-114.6,41.1l19.1,23.1C51.3,215.2,85.2,203,120,203c72.4,0,133,51.6,147,120H318.1z"
	/>
<path class="st0" d="M305.8,353H270v45h32.9c-0.6-4.9-0.9-9.9-0.9-15C302,372.6,303.3,362.6,305.8,353z"/>
<path class="st0" d="M422,293c-49.7,0-90,40.3-90,90s40.3,90,90,90s90-40.3,90-90S471.7,293,422,293z M422,398c-8.3,0-15-6.7-15-15
	s6.7-15,15-15s15,6.7,15,15S430.3,398,422,398z"/>
<path class="st0" d="M75,147.9c14.7-3.2,29.8-4.9,45-4.9c38.3,0,75.4,10.3,108.1,30h58.4L258.9,68H285V38H45v30h30V147.9z"/>
</svg>
