<?xml version="1.0" encoding="utf-8"?>
<!-- Generator: Adobe Illustrator 22.0.1, SVG Export Plug-In . SVG Version: 6.00 Build 0)  -->
<svg version="1.1" id="Capa_1" xmlns="http://www.w3.org/2000/svg" xmlns:xlink="http://www.w3.org/1999/xlink" x="0px" y="0px"
	 viewBox="0 0 512 512" style="enable-background:new 0 0 512 512;" xml:space="preserve">
<style type="text/css">
	.st0{fill:#FFFFFF;}
</style>
<path class="st0" d="M456.8,0H55.2C24.7,0,0,24.7,0,55.2v305.3c0,30.4,24.7,55.2,55.2,55.2h236.2v-63.2c0-51.4,41.8-93.2,93.2-93.2
	s93.2,41.8,93.2,93.2v59.1c20.1-8.3,34.3-28,34.3-51V55.2C512,24.7,487.3,0,456.8,0L456.8,0z M143.5,65.3h224.9c8.3,0,15,6.7,15,15
	s-6.7,15-15,15H143.5c-8.3,0-15-6.7-15-15S135.3,65.3,143.5,65.3L143.5,65.3z M242.1,335.3H79.3c-8.3,0-15-6.7-15-15s6.7-15,15-15
	h162.8c8.3,0,15,6.7,15,15S250.4,335.3,242.1,335.3z M432.7,223.9H79.3c-8.3,0-15-6.7-15-15s6.7-15,15-15h353.5c8.3,0,15,6.7,15,15
	C447.7,217.2,441,223.9,432.7,223.9z M432.7,159.6H79.3c-8.3,0-15-6.7-15-15s6.7-15,15-15h353.5c8.3,0,15,6.7,15,15
	C447.7,152.9,441,159.6,432.7,159.6z"/>
<path class="st0" d="M384.5,289.2c-34.8,0-63.2,28.4-63.2,63.2s28.4,63.2,63.2,63.2c34.8,0,63.2-28.4,63.2-63.2
	S419.4,289.2,384.5,289.2z"/>
<path class="st0" d="M321.3,420.8V497c0,5.5,3,10.6,7.9,13.2c2.2,1.2,4.6,1.8,7.1,1.8c2.9,0,5.8-0.8,8.3-2.5l39.9-26.6l39.9,26.6
	c2.5,1.7,5.4,2.5,8.3,2.5c2.4,0,4.9-0.6,7.1-1.8c4.9-2.6,7.9-7.7,7.9-13.2v-76.2c-16.6,15.4-38.8,24.8-63.2,24.8
	S338,436.2,321.3,420.8L321.3,420.8z"/>
</svg>
