<?xml version="1.0" encoding="utf-8"?>
<!-- Generator: Adobe Illustrator 22.0.1, SVG Export Plug-In . SVG Version: 6.00 Build 0)  -->
<svg version="1.1" id="Layer_1" xmlns="http://www.w3.org/2000/svg" xmlns:xlink="http://www.w3.org/1999/xlink" x="0px" y="0px"
	 viewBox="0 0 511 511" style="enable-background:new 0 0 511 511;" xml:space="preserve">
<style type="text/css">
	.st0{fill:#FFFFFF;}
</style>
<path class="st0" d="M347.9,318.4l-82.2-83.2l-37.8-86.1l28.3,41.5l4.1-11.6c3.1-8.8,3.7-17.8,2.3-26.4c-1.6-0.5-3.3-0.9-4.9-1.5
	c-22.2-7.8-38.4-25.2-45.5-45.9l-10.1-3.5c-35-12.3-73.3,6.2-85.6,41.2l-54.5,156c-5.6,16.1-2.9,34,7.3,47.7l23.2,31.4
	c-11.1,4.4-19.2,14.7-20.3,27.1h34.8l-13.3-25.5l33,44.4h-94c-18,0-33.1,14.7-32.7,32.7c0.3,17.4,14.6,31.5,32.1,31.5h158.4
	c26.3,0,41.5-30,25.8-51.2l-70.9-95.7l80.2,78.5c6.8-7.9,15.2-13.2,24.3-16c2.5-8.3,6.4-16,11.3-22.9L203.8,340l17.6-50.1l-8.8-8.9
	c-2.2-2.6-7.3-5.7-9-13.3l-22.7-97.9l39.7,90.5c1.3,2.9,3,5.5,5.2,7.7l85.5,86.6c9.9,10.1,26.2,10.2,36.3,0.2
	C357.7,344.7,357.8,328.5,347.9,318.4z"/>
<path class="st0" d="M511,453.5c0-18.9-15.1-34.2-33.8-34.7c-3.8-30.3-29.7-53.8-61.1-53.8h-6.6c30.2,18,44.7,55.4,32.6,89.8
	c-4.7,13.4-12.9,24.8-23.4,33.4h59v0C496.2,487.4,511,472.2,511,453.5z"/>
<path class="st0" d="M264.1,488.1L264.1,488.1l58.9,0c-23.8-19.5-34.1-52.6-23.4-83.3c3.6-10.2,9.2-19.2,16.3-26.8
	c-5.3-1.7-10.3-4.4-14.7-8.1c-19.6,8.5-33.9,26.8-36.7,48.8c-11,0.2-20.8,5.6-27,13.8c9.3,13.7,10.6,31.3,3.9,46.1
	C247.5,484.3,255.4,487.8,264.1,488.1z"/>
<path class="st0" d="M425.4,449.5c13.2-37.8-15-76.9-54.5-76.9c-23.8,0-46.2,14.9-54.5,38.7c-13.2,37.8,15,76.8,54.5,76.8
	C394.7,488.2,417.1,473.3,425.4,449.5z"/>
<path class="st0" d="M282.2,138.5c23.8,0,46.2-14.9,54.5-38.7C350,62.1,321.7,23,282.2,23c-23.8,0-46.2,14.9-54.5,38.7
	C214.5,99.4,242.8,138.5,282.2,138.5z"/>
</svg>
