<?xml version="1.0" encoding="utf-8"?>
<!-- Generator: Adobe Illustrator 22.0.1, SVG Export Plug-In . SVG Version: 6.00 Build 0)  -->
<svg version="1.1" id="Capa_1" xmlns="http://www.w3.org/2000/svg" xmlns:xlink="http://www.w3.org/1999/xlink" x="0px" y="0px"
	 viewBox="0 0 365.3 365.3" style="enable-background:new 0 0 365.3 365.3;" xml:space="preserve">
<style type="text/css">
	.st0{fill:#1C4B6E;}
</style>
<g>
	<path class="st0" d="M246.2,333.4c-1.8-1.1-7.2-2.5-8.7-3.6l-30.8,20.2l-25-25l21.5-34.3c-0.8-1.5-0.6-1.7-1.4-3.3l-39.6-7
		l0.1-38.6l28.9-5L177,222.8c-12,9.8-26.7,15.6-42.4,15.6h-0.1h-0.1c-14.9,0-28.8-5.2-40.4-14l0,0l-14.6,14H50.8
		c-13.2,0-23.5,4.5-31.6,13.9C-4.3,279.4-0.4,338,1.5,356h249.1L246.2,333.4z M74.9,165.9c1.9,16.4,8.8,30.9,18.8,41.6
		c2.1,2.3,4.3,4.3,6.6,6.1c3,2.4,6.2,4.4,9.5,6.2c7.6,3.9,15.9,6.1,24.7,6.1s17.1-2.3,24.7-6.1c3.4-1.8,6.5-3.8,9.5-6.2
		c2.4-1.9,4.6-3.9,6.7-6.2c9.9-10.6,16.8-25.1,18.7-41.3c0.2,0,0.4,0.1,0.6,0.1c10.4,0,18.9-9.7,18.9-21.6c0-7.3-3.1-13.6-7.9-17.6
		H66.6c-4.8,3.9-7.8,10.3-7.8,17.6C58.7,155.5,65.8,164.4,74.9,165.9z M365.3,269.1v-16.6l-34.6-6.3c-1.5-6.4-4.1-12.4-7.5-17.9
		l20.1-28.8l-11.8-11.8l-28.9,20.1c-5.5-3.4-11.5-5.9-18-7.4l-6.1-34.6h-16.6l-6.3,34.6c-6.4,1.6-12.4,4.1-17.9,7.4l-28.8-20.1
		l-11.8,11.8l20.1,28.9c-3.4,5.5-5.9,11.6-7.4,17.9l-34.6,6.1v16.6l34.6,6.3c1.6,6.5,4.1,12.5,7.4,18l-20.2,28.8l11.8,11.8
		l28.9-20.1c5.5,3.4,11.6,5.9,17.9,7.4l6.2,34.6h16.6l6.3-34.6c6.5-1.5,12.5-4.1,18-7.5l28.8,20.1l11.8-11.8l-20.1-28.9
		c3.4-5.5,5.9-11.5,7.4-18L365.3,269.1z M270.2,286.5c-14.2,0-25.7-11.5-25.7-25.7c0-14.2,11.5-25.7,25.7-25.7s25.7,11.5,25.7,25.7
		C295.9,275,284.4,286.5,270.2,286.5z M108.1,34.2C87.3,44.8,70.9,66,64.7,86.6L63.3,91H51.9v25h12.4h17.6h7.4h96.4h7.2h27.4v-1.2
		V91h-11.2l-1.4-4.4C201.5,66,185.1,45,164.3,34.4v47V88c0,0.4,0,0.6,0,0.8c-0.2,2.2-0.6,4.2-1.6,6.2c-2.6,5-7.8,8.6-13.8,8.6h-3.2
		h-22c-5.6,0-10.6-3-13.2-7.4c-1.2-1.8-1.8-3.8-2.2-6c-0.2-0.8-0.2-1.4-0.2-2.2v-5.6L108.1,34.2L108.1,34.2z M123.7,97h25
		c3.6,0,6.6-2,8.2-5c0.8-1.4,1.2-2.8,1.2-4.4v-1.8v-7.4V31.2v-6.8v-2.6c0-1.6-0.4-3-0.8-4.4c-1.8-4.6-6.4-8-11.6-8h-22
		c-4.8,0-8.8,3.6-9.2,8.2c0,0.4-0.2,0.8-0.2,1.2v5.6v6.8v48v7.6v0.8c0,2,0.6,3.8,1.6,5.4C117.7,95.4,120.5,97,123.7,97z"/>
</g>
</svg>
