<?xml version="1.0" encoding="utf-8"?>
<!-- Generator: Adobe Illustrator 22.0.1, SVG Export Plug-In . SVG Version: 6.00 Build 0)  -->
<svg version="1.1" id="Capa_1" xmlns="http://www.w3.org/2000/svg" xmlns:xlink="http://www.w3.org/1999/xlink" x="0px" y="0px"
	 viewBox="0 0 545 545" style="enable-background:new 0 0 545 545;" xml:space="preserve">
<style type="text/css">
	.st0{fill:#1C4B6E;}
</style>
<g>
	<path id="iconos_43_" class="st0" d="M188.2,535.8l110.2-190.6l-15.9-15.3c-18.7,15.3-41.3,24.2-65.8,24.2
		c-22.9,0-44.7-8-62.4-21.7L131.6,354H87.2c-20.5,0-36.4,7-49,21.4C1.9,417.4,8,508,10.7,535.8H188.2L188.2,535.8z M124.6,242.4
		c3.1,25.4,13.5,47.7,29.1,64.3c3.4,3.4,6.7,6.7,10.4,9.5c4.6,3.7,9.5,6.7,14.7,9.5c11.6,6.1,24.5,9.5,38.3,9.5
		c13.8,0,26.6-3.4,38.3-9.5c5.2-2.8,10.1-5.8,14.7-9.5c3.7-3.1,7-6.1,10.4-9.5c15.3-16.5,26-38.9,28.8-64c0.3,0,0.6,0,0.9,0
		c16.2,0,29.1-15,29.1-33.4c0-11.3-4.9-21.1-12.2-27.2H111.4c-7.3,6.1-12.2,15.9-12.2,27.2C99.5,226.1,110.2,239.9,124.6,242.4z
		 M171.7,37.9c-31.8,16.2-56.9,48.7-66.4,80.2l-2.1,6.7H85.7v38.2h19h26.9h11.3h147.5h11h41.9v-1.8v-36.4h-17.1l-2.1-6.7
		c-9.5-31.5-34.6-63.6-66.4-79.9v71.9v10.1c0,0.6,0,0.9,0,1.2c-0.3,3.4-0.9,6.4-2.4,9.5c-4,7.6-11.9,13.2-21.1,13.2h-4.9h-33.7
		c-8.6,0-16.2-4.6-20.2-11.3c-1.8-2.8-2.8-5.8-3.4-9.2c-0.3-1.2-0.3-2.1-0.3-3.4v-8.6L171.7,37.9L171.7,37.9z M195.6,134h38.3
		c5.5,0,10.1-3.1,12.5-7.7c1.2-2.1,1.8-4.3,1.8-6.7v-2.8v-11.3V33.4V23v-4c0-2.4-0.6-4.6-1.2-6.7c-2.8-7-9.8-12.2-17.7-12.2h-33.7
		c-7.3,0-13.5,5.5-14.1,12.5c0,0.6-0.3,1.2-0.3,1.8V23v10.4v73.4v11.6v1.2c0,3.1,0.9,5.8,2.4,8.3C186.4,131.6,190.7,134,195.6,134z
		 M357.1,459.3h38.6l7.3-60l2.1-17.1l1.2-9.2H399h-12.2h-40.4L357.1,459.3z M353.1,469.1h47.7v47.7h-47.7V469.1z M374.6,263.2
		c-3.4,0-6.7,1.8-8.6,4.9l-38.6,67l-5.5,9.5l-5.5,9.5L214.5,530.6c-0.9,1.5-1.2,3.4-1.2,4.9s0.3,3.4,1.2,4.6
		c1.8,3.1,4.9,4.9,8.6,4.9h204.4h9.5h89.7l0,0c5.5,0,9.8-4.3,9.8-9.8c0-2.4-0.9-4.3-2.1-6.1l-151.2-261
		C381.3,265,378.2,263.2,374.6,263.2z M438.2,526.3h-9.5h-9.5H239.9l99.5-172l5.5-9.5l5.5-9.5l24.8-42.5l134.9,233.5H438.2z"/>
</g>
</svg>
