<?xml version="1.0" encoding="utf-8"?>
<!-- Generator: Adobe Illustrator 22.0.1, SVG Export Plug-In . SVG Version: 6.00 Build 0)  -->
<svg version="1.1" id="Capa_1" xmlns="http://www.w3.org/2000/svg" xmlns:xlink="http://www.w3.org/1999/xlink" x="0px" y="0px"
	 viewBox="0 0 47 47" style="enable-background:new 0 0 47 47;" xml:space="preserve">
<style type="text/css">
	.st0{fill:#1C4B6E;}
</style>
<g>
	<g>
		<path class="st0" d="M24.2,8.9c-0.8,0-1.4,0.6-1.4,1.4v15.6c0,0.8,0.6,1.4,1.4,1.4h21.5c0.8,0,1.4-0.6,1.4-1.4V10.3
			c0-0.8-0.6-1.4-1.4-1.4H24.2z M42.4,17.7h-15v-4.6h15V17.7z"/>
		<g>
			<circle class="st0" cx="10.8" cy="33.2" r="4.9"/>
		</g>
		<g>
			<circle class="st0" cx="36.2" cy="33.2" r="4.9"/>
		</g>
		<path class="st0" d="M20.4,12.7c0-0.8-0.6-1.4-1.4-1.4h-5.5c-3.6,0-6.9,2-8.5,5.2l-2.2,4.3c-0.6,1.3-1,2.6-1,4v4.9H1.4
			c-0.8,0-1.4,0.6-1.4,1.4v0.7c0,0.8,0.6,1.4,1.4,1.4h2.9c0-3.6,2.9-6.5,6.5-6.5s6.5,2.9,6.5,6.5h12.5c0-1.3,0.4-2.5,1-3.5h-7.5
			c-1.6,0-2.8-1.3-2.8-2.8L20.4,12.7L20.4,12.7L20.4,12.7z M17.4,21.2H6.2l1.6-3.3c1.1-2.2,3.3-3.6,5.8-3.6h3.8V21.2z"/>
		<path class="st0" d="M42.6,33.2h1.6c0.8,0,1.4-0.6,1.4-1.4v-0.7c0-0.8-0.6-1.4-1.4-1.4h-2.6C42.3,30.8,42.6,31.9,42.6,33.2z"/>
	</g>
</g>
</svg>
