<?xml version="1.0" encoding="utf-8"?>
<!-- Generator: Adobe Illustrator 22.0.1, SVG Export Plug-In . SVG Version: 6.00 Build 0)  -->
<svg version="1.1" id="bold" xmlns="http://www.w3.org/2000/svg" xmlns:xlink="http://www.w3.org/1999/xlink" x="0px" y="0px"
	 viewBox="0 0 512 512" style="enable-background:new 0 0 512 512;" xml:space="preserve">
<style type="text/css">
	.st0{fill:#1C4B6E;}
</style>
<path class="st0" d="M501.1,252.3l-112-38.1c-3.3-1.2-7-1.2-10.3,0l-112,38.1c-6.5,2.2-10.9,8.3-10.9,15.1v85.7
	c0,104.6,116.8,155.5,121.7,157.6c4,1.7,8.5,1.7,12.5,0c5-2.1,121.7-53,121.7-157.6v-85.7C512,260.6,507.6,254.5,501.1,252.3
	L501.1,252.3z M454.1,333.2l-58.7,74.7c-7.5,9.5-21.5,10.9-30.7,3l-37.3-32c-9-7.7-10-21.1-2.3-30.1c7.7-8.9,21.1-10,30.1-2.3
	l20.4,17.5l44.9-57.2c7.3-9.3,20.7-10.9,30-3.6C459.8,310.5,461.4,323.9,454.1,333.2z"/>
<path class="st0" d="M208,266.7h-32c-8.8,0-16,7.2-16,16c0,8.8,7.2,16,16,16h32c8.8,0,16-7.2,16-16C224,273.8,216.8,266.7,208,266.7
	z"/>
<path class="st0" d="M80,266.7c-8.8,0-16,7.2-16,16c0,8.8,7.2,16,16,16h32c8.8,0,16-7.2,16-16c0-8.8-7.2-16-16-16H80z"/>
<path class="st0" d="M320,176c0-20.6-16.7-37.3-37.3-37.3H175.3L157.4,31.2c-7-42.1-73.2-41.9-80.2,0L50.3,192.9
	C21.9,196.9,0,221.2,0,250.7v138.7c0,8.8,7.2,16,16,16h160c8.8,0,16-7.2,16-16s-7.2-16-16-16H32V250.7c0-14.8,10.2-26.7,32-26.7h240
	c8.8,0,16-7.2,16-16c0-0.1-0.1-0.3-0.1-0.4s0.1-0.3,0.1-0.4V176z"/>
</svg>
