<?xml version="1.0" encoding="utf-8"?>
<!-- Generator: Adobe Illustrator 22.0.1, SVG Export Plug-In . SVG Version: 6.00 Build 0)  -->
<svg version="1.1" id="Layer_1" xmlns="http://www.w3.org/2000/svg" xmlns:xlink="http://www.w3.org/1999/xlink" x="0px" y="0px"
	 viewBox="0 0 512 512" style="enable-background:new 0 0 512 512;" xml:space="preserve">
<style type="text/css">
	.st0{fill:#FFFFFF;}
</style>
<g>
	<g>
		<path class="st0" d="M449.4,182c-28.2,0-51.2-23-51.2-51.2V0H295.8v85.3c0,22-17.9,39.8-39.8,39.8s-39.8-17.9-39.8-39.8V0H113.8
			v130.8c0,28.2-23,51.2-51.2,51.2H45.5v330h421V182H449.4z M432.4,460.8H79.6v-45.5h352.7L432.4,460.8L432.4,460.8z M432.4,358.4
			H79.6v-45.5h352.7L432.4,358.4L432.4,358.4z M432.4,256H79.6v-45.5h352.7L432.4,256L432.4,256z"/>
	</g>
</g>
</svg>
