<?xml version="1.0" encoding="utf-8"?>
<!-- Generator: Adobe Illustrator 22.0.1, SVG Export Plug-In . SVG Version: 6.00 Build 0)  -->
<svg version="1.1" id="Layer_1" xmlns="http://www.w3.org/2000/svg" xmlns:xlink="http://www.w3.org/1999/xlink" x="0px" y="0px"
	 viewBox="0 0 211.3 509.4" style="enable-background:new 0 0 211.3 509.4;" xml:space="preserve">
<style type="text/css">
	.st0{fill:#FFFFFF;}
</style>
<g>
	<g>
		<path class="st0" d="M140.5,71.8c-7.7,3.3-16.4,5.1-25.3,5.1c-9,0-17.7-1.8-25.5-5.2c-2.6,4.6-7.4,7.5-12.7,7.6
			c1.7,19.8,18.3,35.4,38.6,35.4s36.9-15.6,38.6-35.4C147.7,79.4,143.1,76.3,140.5,71.8z"/>
	</g>
</g>
<g>
	<g>
		<path class="st0" d="M105.3,352.3c-14.2,5.9-30.1-3.3-32.2-18.5c-0.7-5.5-5.8-43.6-6.4-48.1l-2.2-1.5c0,0-0.2-2.5-0.2,201.4
			c0,13.1,10.6,23.8,23.8,23.8s23.8-10.6,23.8-23.8v-136L105.3,352.3z"/>
	</g>
</g>
<g>
	<g>
		<path class="st0" d="M211,171.1c-0.1-24.9-20.5-45.1-45.3-45.1c-8.4,0-74.3,0-82.9,0c4.1,9.8,31.9,76.8,36.3,87.3
			c2.1,5.1,2.1,10.7,0,15.8c-0.1,0.3-0.2,0.5-0.4,0.8c12.4,11.5,15.7,30,7.9,45.1c5.8,14,9.5,22.8,15.3,36.7
			c5,11.9-0.7,25.6-12.6,30.6l-10.5,4.4v139c0,13.1,10.6,23.8,23.8,23.8s23.8-10.6,23.8-23.8c0-10.7,0-271.2,0-314.3
			c0-1.4,1.1-2.5,2.5-2.5s2.5,1.1,2.5,2.5c0.3,57.6,0.2,30.8,0.2,120.2c0,10.9,8.9,19.8,19.8,19.8l0,0c10.9,0,19.8-8.9,19.8-19.8
			C211.3,202,211.3,228.8,211,171.1z"/>
	</g>
</g>
<g>
	<g>
		<path class="st0" d="M108.1,217.9l-66.5-160l7-2.9c4.4-1.8,6.5-6.9,4.7-11.3S46.4,37.2,42,39l-7,2.9l-5-12
			c-1.8-4.4-6.9-6.5-11.3-4.7s-6.5,6.9-4.7,11.3l33.2,79.8c-2.4-2.6-6.2-3.6-9.7-2.1c-4.4,1.8-6.5,6.9-4.7,11.3
			c3.3,8,23.6,56.6,26.3,63.2l49.7,33.8C108.9,221,108.8,219.4,108.1,217.9z"/>
	</g>
</g>
<g>
	<g>
		<path class="st0" d="M131,316.3l-12.7-30.4c-10.3,9.2-25.1,12.4-38.6,7.4l5.2,39c1,7.5,8.8,12,15.8,9.1l24.1-10
			C130.7,328.8,133.5,322.1,131,316.3z"/>
	</g>
</g>
<g>
	<g>
		<path class="st0" d="M104.1,241.3L46,201.8l2.7-4.8l-19.2-46.3C14.2,177.6,15,176.3,2.6,198.1c-5.1,9-2.5,20.3,6.1,26.1L81.8,274
			c9,6.2,21.4,3.8,27.5-5.2C115.5,259.8,113.1,247.5,104.1,241.3z"/>
	</g>
</g>
<g>
	<g>
		<path class="st0" d="M162.9,63.8c-1.6-8.8-5.6-30.5-5.6-31.3c0-18-18.8-32.5-42.1-32.5C93,0,74.9,13.3,73.3,30.1h-0.1l-5.9,33.8
			c-0.3,1.9,1.1,3.6,3,3.6h6.4c1.1,0,2.2-0.6,2.7-1.6L85,55.1c7.6,6.1,18.3,9.9,30.2,9.9c11.7,0,22.4-3.7,30-9.7l5.6,10.5
			c0.5,1,1.6,1.6,2.7,1.6h6.3C161.8,67.5,163.2,65.7,162.9,63.8z"/>
	</g>
</g>
</svg>
