<?xml version="1.0" encoding="utf-8"?>
<!-- Generator: Adobe Illustrator 22.0.1, SVG Export Plug-In . SVG Version: 6.00 Build 0)  -->
<svg version="1.1" id="Capa_1" xmlns="http://www.w3.org/2000/svg" xmlns:xlink="http://www.w3.org/1999/xlink" x="0px" y="0px"
	 viewBox="0 0 512 512" style="enable-background:new 0 0 512 512;" xml:space="preserve">
<style type="text/css">
	.st0{fill:#FFFFFF;}
</style>
<g>
	<path class="st0" d="M145.4,138c5.4,0,10.4,2.9,13.1,7.7l19.6,35.1h201.1c8.3,0,15,6.7,15,15v242.3c0,23.1,17.9,42.1,40.6,43.8V15
		c0-8.3-6.7-15-15-15L53.8,0c-8.3,0.1-15,6.8-15,15L38.9,138H145.4z"/>
	<path class="st0" d="M179.2,392.7v30.4h28.3v-30.4c0-8.3,6.7-15,15-15h28.7v-30.5h-28.7c-8.3,0-15-6.7-15-15v-30.4h-28.3v30.4
		c0,8.3-6.7,15-15,15h-28.7v30.5h28.7C172.4,377.7,179.2,384.4,179.2,392.7L179.2,392.7z"/>
	<path class="st0" d="M434.7,511.9c-39.2-1.8-70.6-34.2-70.6-73.9V210.7H169.2c-5.4,0-10.4-2.9-13.1-7.7L136.6,168H14.8
		C6.6,168,0,174.6,0,182.8V497c0,8.3,6.7,15,15,15L434.7,511.9z M105.4,332.2c0-8.3,6.7-15,15-15h28.7v-30.4c0-8.3,6.7-15,15-15
		h58.3c8.3,0,15,6.7,15,15v30.4h28.7c8.3,0,15,6.7,15,15v60.5c0,8.3-6.7,15-15,15h-28.7v30.4c0,8.3-6.7,15-15,15h-58.3
		c-8.3,0-15-6.7-15-15v-30.4h-28.7c-8.3,0-15-6.7-15-15L105.4,332.2z"/>
	<path class="st0" d="M497,141.3h-32.3v369.6c27-5.4,47.3-29.2,47.3-57.8V156.3C512,148,505.3,141.3,497,141.3z"/>
</g>
</svg>
