<?xml version="1.0" encoding="utf-8"?>
<!-- Generator: Adobe Illustrator 22.0.1, SVG Export Plug-In . SVG Version: 6.00 Build 0)  -->
<svg version="1.1" id="Capa_1" xmlns="http://www.w3.org/2000/svg" xmlns:xlink="http://www.w3.org/1999/xlink" x="0px" y="0px"
	 viewBox="0 0 492.7 492.7" style="enable-background:new 0 0 492.7 492.7;" xml:space="preserve">
<style type="text/css">
	.st0{fill:#FFFFFF;}
</style>
<g id="XMLID_351_">
	<path id="XMLID_358_" class="st0" d="M195.8,86.9c-8.9,0-17.1-2.5-24.3-6.6c0,0.7-0.2,1.3-0.2,2c0,24.5,19.8,44.3,44.3,44.3
		c24.5,0,44.4-19.8,44.4-44.3c0-0.7-0.2-1.3-0.2-2c-7.2,4.2-15.5,6.6-24.4,6.6L195.8,86.9L195.8,86.9z"/>
	<path id="XMLID_357_" class="st0" d="M269.4,296.9c-197,0,85,0-107.5,0c0,0,0-1.4,0,173.1c0,12.6,10.2,22.8,22.8,22.8
		c12.6,0,22.8-10.2,22.8-22.8V334.3h16.6V470c0,12.6,10.2,22.8,22.7,22.8c12.6,0,22.8-10.2,22.8-22.8
		C269.4,265.4,269.4,312.8,269.4,296.9z"/>
	<path id="XMLID_356_" class="st0" d="M159.5,33.3h112.1l6.3-8.6c1.8-2.5,2.1-5.7,0.7-8.4c-1.4-2.7-4.2-4.4-7.2-4.4H159.8
		c-3,0-5.8,1.7-7.2,4.4c-1.4,2.7-1.1,6,0.7,8.4L159.5,33.3z"/>
	<path id="XMLID_355_" class="st0" d="M266.1,49.4h-101c4.6,12.5,16.6,21.5,30.7,21.5h39.6C249.5,70.9,261.5,61.9,266.1,49.4z"/>
	<path id="XMLID_352_" class="st0" d="M431,62l-16.2-43.2c-2.2-5.7-7.2-9.9-13.2-10.9l-45.5-7.6c-6-1-12.2,1.3-16.1,6l-29.4,35.6
		c-3.9,4.7-5,11.2-2.8,16.9L324,102c2.1,5.7,7.2,9.9,13.2,10.9l10.9,1.8L335.5,190l-28.7,10.4l-36.9-56.7
		c-4.3-6.6-11.9-8.3-19.3-8.3c-2.4,0-67.5,0-69.6,0c-7.9,0-15.6,3.2-19.1,10.8L98.6,284.7c-4.4,9.5-0.2,20.8,9.4,25.1
		c9.6,4.4,20.8,0.1,25.1-9.4l28.7-63v43.4h107.5v-68.4l13.8,21.1c3.6,5.5,9.6,8.6,15.9,8.6c5.2,0,30.1-9.7,35.5-11.6
		c2.3,2.1,4.7,3.1,7.8,3.1c5.8,0,10.9-4.2,11.8-10.1l0-0.2l3.8-1.4c9.8-3.6,15-14.4,11.4-24.3c-1.7-4.7-5.1-8.2-9.2-10.3l11.5-68.9
		l10.9,1.8c6,1,12.2-1.3,16.1-6l29.4-35.6C432.1,74.2,433.2,67.8,431,62z M238.6,207.5c-8.5,0-15.4-23-15.4-31.4
		c0-8.5,30.8-8.5,30.8,0C253.9,184.6,247.1,207.5,238.6,207.5z"/>
</g>
</svg>
