<?xml version="1.0" encoding="utf-8"?>
<!-- Generator: Adobe Illustrator 22.0.1, SVG Export Plug-In . SVG Version: 6.00 Build 0)  -->
<svg version="1.1" id="Capa_1" xmlns="http://www.w3.org/2000/svg" xmlns:xlink="http://www.w3.org/1999/xlink" x="0px" y="0px"
	 viewBox="0 0 512 512" style="enable-background:new 0 0 512 512;" xml:space="preserve">
<style type="text/css">
	.st0{fill:#1C4B6E;}
</style>
<g>
	<path class="st0" d="M488,107c0-6-3.6-11.5-9.2-13.8l-217-92c-3.7-1.6-7.9-1.6-11.5,0l-217,92C27.6,95.5,24,101,24,107
		s3.6,11.5,9.2,13.8l217,90c1.8,0.8,3.8,1.2,5.8,1.2c2,0,3.9-0.4,5.8-1.2L452,132v91.5l-28.4,56.8c-3.7,7.4-0.7,16.4,6.7,20.1
		c7.4,3.7,16.4,0.7,20.1-6.7l16.6-33.2l16.6,33.2c3.7,7.4,12.6,10.4,20.1,6.7c7.4-3.7,10.4-12.7,6.7-20.1L482,223.5V118.2
		C485.5,115.4,488,111.6,488,107z"/>
	<path class="st0" d="M392,257v-67.5l-118.7,49c-5.4,2.3-11.3,3.5-17.3,3.5c-6,0-11.9-1.2-17.4-3.5l-117.6-49V257
		c0,5.4,2.9,10.4,7.7,13.1C131,271.4,186.6,302,256,302c69.4,0,126-30.6,128.3-31.9C389.1,267.4,392,262.4,392,257z"/>
	<ellipse class="st0" cx="482" cy="407" rx="30" ry="75"/>
	<path class="st0" d="M226,477c0,3.3,1.1,6.4,3,9.1l16.3,21.6c5.9,5.9,15.4,5.9,21.2,0L283,486c2-2.6,3-5.8,3-9.1V362h-60L226,477
		L226,477z"/>
	<path class="st0" d="M316,356.8v100.4L435.7,477c-8.7-18-13.8-41.7-13.8-70s5.1-52,13.8-70L316,356.8z"/>
	<path class="st0" d="M44.9,482c0,0,0.1,0,0.1,0c0,0,0,0,0,0c0,0,0,0,0,0c1.9,0-16.3,3,151-24.8V356.8c-3-0.5-159.3-26.2-149.4-24.6
		C14.1,330.6,0,374.3,0,407C0,449.7,19.3,481.9,44.9,482z"/>
</g>
</svg>
