<?xml version="1.0" encoding="utf-8"?>
<!-- Generator: Adobe Illustrator 22.0.1, SVG Export Plug-In . SVG Version: 6.00 Build 0)  -->
<svg version="1.1" id="Layer_5" xmlns="http://www.w3.org/2000/svg" xmlns:xlink="http://www.w3.org/1999/xlink" x="0px" y="0px"
	 viewBox="0 0 512 512" style="enable-background:new 0 0 512 512;" xml:space="preserve">
<style type="text/css">
	.st0{fill:#FFFFFF;}
</style>
<path class="st0" d="M278.1,402c-9.1-11.4-22.9-18-37.5-18H240v-47.8l-24-28.4l-8-11.8v60.1V384H72c-30.9,0-56,25.1-56,56
	s25.1,56,56,56h112c30.9,0,56-25.1,56-56l0.3-24c4.8,0,9.4,2.2,12.5,6l54.7,68c3,3.8,7.6,6,12.5,6c3.6,0,7.2-1.2,10-3.5
	c6.9-5.5,8-15.6,2.5-22.5L278.1,402z M208,440c0,13.3-10.7,24-24,24H72c-13.3,0-24-10.7-24-24s10.7-24,24-24h136V440z"/>
<path class="st0" d="M400,288.4V16h-32v272h26C396,288,398,288.1,400,288.4z"/>
<path class="st0" d="M298.6,232h15.1c7,0,13.8-1.8,19.8-5.3l18.5-10.6v-36.9l-27,15.4c-6,3.4-12.9,5.3-19.8,5.3h-34
	c1.3,1.2,2.5,2.5,3.7,3.9L298.6,232z"/>
<circle class="st0" cx="208" cy="128" r="56"/>
<path class="st0" d="M337.8,362.5l-16.4,3.6c-5.7,1.3-11.6,1.9-17.4,1.9c-0.7,0-1.4-0.1-2.2-0.1l85,113.3c5.1,7.2,15.5,8.8,22.4,3.9
	c3.5-2.5,5.8-6.2,6.5-10.4c0.7-4.2-0.3-8.5-2.8-11.9L337.8,362.5z"/>
<path class="st0" d="M484.8,398.4L426.1,320c-7.6-10.1-19.4-16-32-16h-37c-11.8,0-22.9-5.2-30.5-14.2l-64-75.6
	c-7.6-9-18.8-14.2-30.6-14.2h-8h-9.9c-21.7,0-42.3,9.8-55.9,26.7l-29.6,36.6c-5.5,7.3-8.6,16.6-8.6,26c0,20.8,14.8,38.8,35.2,42.9
	l36.8,4.7v-32.1l-30-3.9c-6-1.2-10-6-10-11.6c0-2.5,0.8-5,2.4-7l18.2-24.2c4.7-6.3,12.1-10,19.9-10l1.9,5.3c1.6,4.6,4,8.8,7.1,12.5
	l53.7,63.5c15.2,18,39.8,26.3,62.8,21.2l62.5-13.9c1.8-0.4,3.5-0.6,5.3-0.6c7.6,0,14.9,3.6,19.5,9.8l53.2,70.9
	c5.5,7.4,16.6,9.6,23.8,3.7c3.1-2.5,5-6.1,5.6-10C488.4,406,487.4,401.8,484.8,398.4L484.8,398.4z"/>
</svg>
