<?xml version="1.0" encoding="utf-8"?>
<!-- Generator: Adobe Illustrator 22.0.1, SVG Export Plug-In . SVG Version: 6.00 Build 0)  -->
<svg version="1.1" id="Capa_1" xmlns="http://www.w3.org/2000/svg" xmlns:xlink="http://www.w3.org/1999/xlink" x="0px" y="0px"
	 viewBox="0 0 512 512" style="enable-background:new 0 0 512 512;" xml:space="preserve">
<style type="text/css">
	.st0{fill:#FFFFFF;}
</style>
<g>
	<rect x="161.5" y="245" class="st0" width="53" height="172"/>
	<path class="st0" d="M131.5,432V230c0-8.3,6.7-15,15-15h66.5c-3.3-18.1-12.2-34.3-24.7-46.9c-34.9-34.9-90.9-34.9-125.7,0
		c-16.1,16.1-26.1,38.4-26.1,62.9v251c0,16.5,13.5,30,30,30h118c16.5,0,30-13.5,30-30v-35h-68C138.2,447,131.5,440.3,131.5,432z"/>
	<path class="st0" d="M476.8,253.1L283,71.8c-5.2-5.6-13.9-6.3-20-1.6l-4.7,3.6l-36.4-36.4c-2.8-2.8-6.6-4.4-10.6-4.4h-42.4
		c-5.3-19-22.7-33-43.4-33S87.4,14,82.1,33H45.5c-8.3,0-15,6.7-15,15s6.7,15,15,15h38.8c5,11.4,14.5,20.3,26.2,24.4V112
		c0,0.3,0,0.6,0,0.9c4.9-0.6,9.9-0.9,15-0.9c5.1,0,10.1,0.3,15,0.9c0-0.3,0-0.6,0-0.9V87.4c11.8-4.2,21.3-13.1,26.2-24.4H205
		l29.3,29.3l-1.5,1.2c-5.7,4.4-7.6,12.4-4,19l87.8,160.9c10,18.3,30,55.2,41.1,74.9c4,7.2,14.4,7.7,21,2.7l96.9-75.1
		C482.9,270.2,483.5,259.4,476.8,253.1z"/>
</g>
</svg>
