<?xml version="1.0" encoding="utf-8"?>
<!-- Generator: Adobe Illustrator 22.0.1, SVG Export Plug-In . SVG Version: 6.00 Build 0)  -->
<svg version="1.1" id="Layer_1" xmlns="http://www.w3.org/2000/svg" xmlns:xlink="http://www.w3.org/1999/xlink" x="0px" y="0px"
	 viewBox="0 0 682 682" style="enable-background:new 0 0 682 682;" xml:space="preserve">
<style type="text/css">
	.st0{fill:#FFFFFF;}
</style>
<path class="st0" d="M317.5,305.3L295,354.1h60v8.8l22.5-48.8h-60V305.3z"/>
<path class="st0" d="M336.2,21L89.7,133v202.9c0,41.5,12.9,84.4,38.2,127.4c19.8,33.5,47.2,67.2,81.5,100.2
	c57.8,55.6,126.9,96.9,126.9,96.9s69-41.3,126.9-96.9c34.3-33,61.7-66.7,81.5-100.2c25.4-43,38.2-85.8,38.2-127.4V133L336.2,21z
	 M317.5,533.4V391.7h-81.2l118.7-256.9v141.7h81.2L317.5,533.4z"/>
</svg>
