<?xml version="1.0" encoding="utf-8"?>
<!-- Generator: Adobe Illustrator 22.0.1, SVG Export Plug-In . SVG Version: 6.00 Build 0)  -->
<svg version="1.1" id="Capa_1" xmlns="http://www.w3.org/2000/svg" xmlns:xlink="http://www.w3.org/1999/xlink" x="0px" y="0px"
	 viewBox="0 0 512 512" style="enable-background:new 0 0 512 512;" xml:space="preserve">
<style type="text/css">
	.st0{fill:#1C4B6E;}
</style>
<g>
	<path class="st0" d="M90,497c0,8.3,6.7,15,15,15h300.9c8.3,0,15-6.7,15-15v-46H90V497z"/>
	<path class="st0" d="M15,421h226v-60h-91v-30h46c8.3,0,15-6.7,15-15c0-8.3-6.7-15-15-15H15c-8.3,0-15,6.7-15,15c0,8.3,6.7,15,15,15
		h15v30H15c-8.3,0-15,6.7-15,15v30C0,414.3,6.7,421,15,421z M60,331h60v30H60V331z"/>
	<path class="st0" d="M439.5,361H270.9v60h168.5c20.3,0,49.1-6.2,65.8-17.4c9-6,9-19.3,0-25.2C488.5,367.2,459.8,361,439.5,361
		L439.5,361z"/>
	<path class="st0" d="M240.9,316c0,5.3-1.1,10.3-2.8,15h182.7V15.1c0-8.3-6.7-15-15-15H105c-8.3,0-15,6.7-15,15V271h106
		C220.8,271,240.9,291.2,240.9,316z M315.9,61c8.3,0,15,6.7,15,15s-6.7,15-15,15c-8.3,0-15-6.7-15-15S307.7,61,315.9,61z M255.9,61
		c8.3,0,15,6.7,15,15s-6.7,15-15,15s-15-6.7-15-15S247.7,61,255.9,61z M196,61c8.3,0,15,6.7,15,15s-6.7,15-15,15
		c-8.3,0-15-6.7-15-15S187.7,61,196,61z M150,136c0-8.3,7.7-15,16-15h180c8.3,0,15,6.7,15,15s-6.7,15-15,15H166
		C157.7,151,150,144.3,150,136z M181,196c0-8.3,6.7-15,15-15h120c8.3,0,15,6.7,15,15c0,8.3-6.7,15-15,15H196
		C187.7,211,181,204.3,181,196z"/>
</g>
</svg>
